<svg id="SvgjsSvg1013" width="288" height="288" xmlns="http://www.w3.org/2000/svg" version="1.1" xmlns:xlink="http://www.w3.org/1999/xlink" xmlns:svgjs="http://svgjs.com/svgjs"><defs id="SvgjsDefs1014"></defs><g id="SvgjsG1015"><svg xmlns="http://www.w3.org/2000/svg" enable-background="new 0 0 100 100" viewBox="0 0 100 100" width="288" height="288"><path d="M86.443 32.675c4.841 0 8.78-3.938 8.78-8.779-.461-11.639-17.101-11.636-17.559 0C77.663 28.737 81.601 32.675 86.443 32.675zM94.642 40.17H79.206c.498.896.751 1.916.734 2.944l0 26.248c.06 2.692-.281 5.387-1.01 7.978-.227.784-.486 1.558-.77 2.323 1.558.56 3.177.843 4.829.842 8.035 0 14.51-6.476 14.51-14.435V43.028C97.5 41.453 96.218 40.17 94.642 40.17zM76.957 42.504c-.23-1.289-1.38-2.306-2.698-2.334H52.608v30.797c0 3.113-2.532 5.645-5.645 5.645H30.756c6.542 22.086 35.945 23.444 44.552 2.258 1.191-3.003 1.765-6.244 1.693-9.474l0-26.316C77.005 42.883 76.99 42.691 76.957 42.504zM46.964 23.565c3.113 0 5.645 2.532 5.645 5.644v3.314c.66.101 1.312.152 1.947.152 17.688-.731 17.688-25.94 0-26.67-8.936-.153-15.607 9.15-12.649 17.56C41.906 23.565 46.964 23.565 46.964 23.565z" fill="#333333" class="color000 svgShape"></path><path d="M49.669,70.968V29.209c0-1.491-1.213-2.704-2.705-2.704H5.205c-1.491,0-2.705,1.213-2.705,2.704v41.759			c0,1.492,1.213,2.705,2.705,2.705h41.759C48.455,73.673,49.669,72.46,49.669,70.968z M38.542,40.927c0,0.812-0.658,1.47-1.47,1.47
			h-6.878v21.261c0,0.811-0.658,1.47-1.47,1.47h-5.318c-0.812,0-1.47-0.658-1.47-1.47V42.397h-6.839c-0.812,0-1.47-0.658-1.47-1.47
			v-4.41c0-0.812,0.658-1.47,1.47-1.47h21.975c0.812,0,1.47,0.658,1.47,1.47V40.927z" fill="#333333" class="color000 svgShape"></path><path d="M16.567,39.458h6.839c0.812,0,1.47,0.658,1.47,1.47v21.261h2.378V40.927c0-0.811,0.658-1.47,1.47-1.47h6.878v-1.47H16.567
			V39.458z" fill="#333333" class="color000 svgShape"></path></svg></g></svg>